Coordinates
version=1
nRows=14
nColumns=36
inDegrees=yes

Units are S.I. units (second, meters, Newtons, ...)
If the header above contains a line with 'inDegrees', this indicates whether rotational values are in degrees (yes) or radians (no).

endheader
time	pelvis_tilt	pelvis_list	pelvis_rotation	pelvis_tx	pelvis_ty	pelvis_tz	hip_flexion_r	hip_adduction_r	hip_rotation_r	knee_angle_r	knee_angle_r_beta	ankle_angle_r	subtalar_angle_r	mtp_angle_r	hip_flexion_l	hip_adduction_l	hip_rotation_l	knee_angle_l	knee_angle_l_beta	ankle_angle_l	subtalar_angle_l	mtp_angle_l	lumbar_extension	lumbar_bending	lumbar_rotation	arm_flex_r	arm_add_r	arm_rot_r	elbow_flex_r	pro_sup_r	arm_flex_l	arm_add_l	arm_rot_l	elbow_flex_l	pro_sup_l
      0.00000000	      0.69066859	      2.32463616	      4.97614420	     -0.20110273	      0.99541383	     -0.26706934	     24.29154815	     -2.01689778	     -4.41385311	      5.55172604	      0.09689590	     -3.69543889	     -9.45366236	     -4.82379092	    -22.82337424	      0.90407415	     -1.60087595	     13.92476070	      0.24303292	      5.24119385	      9.38828638	     -4.82379092	     -8.01182151	      2.17371315	     -8.35970689	     -8.51466616	     -5.32248436	    -13.60214552	     30.89676766	    106.91315763	      3.74958189	     -7.71598751	      1.33824249	     57.17789278	    110.05602583
      0.01000000	      0.88429883	      1.39280314	      4.99136797	     -0.18494063	      0.99589180	     -0.26511878	     24.27880489	     -1.02952738	     -5.37511255	      7.33314669	      0.12798755	     -4.40390545	     -9.65322785	     -4.84445468	    -22.52155924	     -0.36403236	     -2.44014703	     15.97296277	      0.27878079	      3.30549498	      8.63881436	     -4.84445468	     -7.91340346	      3.37709610	     -8.25421184	     -8.54090164	     -5.46680157	    -13.63284567	     30.69868749	    106.91256832	      2.95356136	     -7.41399718	      1.30259166	     56.33173902	    109.96995230
      0.02000000	      0.89462607	      0.49760789	      4.98900255	     -0.16883288	      0.99621898	     -0.26313493	     24.42960419	     -0.09428904	     -6.16281266	      9.04886644	      0.15793251	     -5.12509389	     -9.79506589	     -4.86973629	    -21.89099283	     -1.59884416	     -3.28387604	     18.24015365	      0.31835074	      1.15620670	      7.76625961	     -4.86973629	     -7.56773423	      4.50818242	     -8.10943353	     -8.62212007	     -5.59537844	    -13.65094414	     30.50992662	    106.92754036	      2.17406630	     -7.06075991	      1.25732265	     55.32233087	    109.86425471
      0.03000000	      1.00978613	     -0.32518147	      4.98502420	     -0.15296261	      0.99695674	     -0.26109470	     24.42936283	      0.77978292	     -6.91125372	     10.73969813	      0.18744309	     -5.56225371	    -10.01710969	     -4.89071054	    -21.20886612	     -2.80019192	     -4.00819326	     20.73928444	      0.36196880	     -1.06634041	      6.88160995	     -4.89071054	     -7.41519165	      5.56819652	     -7.93999897	     -8.67019479	     -5.72120588	    -13.68491184	     30.38612917	    106.94681611	      1.43699171	     -6.76333284	      1.22270707	     54.32294866	    109.76270378
      0.04000000	      1.11619207	     -1.09622941	      4.95576323	     -0.13733199	      0.99799624	     -0.25894572	     24.32979525	      1.63513044	     -7.55670512	     12.26023925	      0.21398154	     -5.71479917	    -10.25082987	     -4.91096062	    -20.25718145	     -3.99385680	     -4.71439098	     23.61665990	      0.41218847	     -3.50884988	      5.86445046	     -4.91096062	     -7.28916715	      6.54851813	     -7.72784864	     -8.71335646	     -5.81686655	    -13.74396680	     30.34880594	    106.97429863	      0.72765813	     -6.49461388	      1.17516813	     53.25151635	    109.65622115
      0.05000000	      0.92434469	     -1.75995983	      4.89165819	     -0.12191965	      0.99902051	     -0.25684963	     24.46283989	      2.37547843	     -8.00062356	     13.66783109	      0.23854865	     -5.55953750	    -10.34267528	     -5.05005178	    -18.76906610	     -4.95317027	     -4.92796152	     26.71970011	      0.46634674	     -6.75264574	      3.41130731	     -5.05005178	     -6.78121408	      7.41321613	     -7.36884952	     -8.93907570	     -5.83874586	    -14.31686610	     30.52702074	    107.20666398	      0.11749260	     -6.23722062	      1.49171952	     51.77029590	    109.52454590
      0.06000000	      1.08924488	     -2.52785288	      4.89265896	     -0.10685171	      1.00072526	     -0.25452489	     23.97777285	      3.30584384	     -8.52385614	     14.64282073	      0.25556543	     -5.14843673	    -10.55372986	     -5.07752103	    -17.34528100	     -6.30267485	     -5.58886046	     30.27980029	      0.52848221	     -9.44644378	      2.46582646	     -5.07752103	     -6.80679701	      8.37358697	     -7.15884021	     -8.92255385	     -5.89430720	    -14.41697334	     30.70700584	    107.26286369	     -0.56448576	     -5.99890583	      1.38254409	     50.70219097	    109.41422798
      0.07000000	      1.09639084	     -3.23405261	      4.93841134	     -0.09215787	      1.00244309	     -0.25217133	     23.49483171	      4.19996949	     -8.86897734	     15.31275206	      0.26725794	     -4.64231704	    -10.68706343	     -5.11148826	    -15.48673412	     -7.57760585	     -5.87799291	     34.10354743	      0.59521919	    -12.53263898	      0.89660642	     -5.11148826	     -6.67918010	      9.24466958	     -6.95153774	     -8.96744177	     -5.92408291	    -14.63942742	     31.02161033	    107.33370408	     -1.17853300	     -5.82560436	      1.32831404	     49.47446933	    109.30032918
      0.08000000	      1.07695738	     -3.80255039	      5.07616163	     -0.07798092	      1.00428891	     -0.24991965	     22.89192936	      4.96365922	     -9.15878625	     15.68606511	      0.27377348	     -4.08712517	    -10.81051167	     -5.15623428	    -13.37530397	     -8.69855985	     -5.82525931	     38.03208578	      0.66378512	    -15.92248597	     -1.13958966	     -5.15623428	     -6.57614493	      9.93249042	     -6.75113626	     -9.00692506	     -5.87613255	    -14.98587794	     31.45039617	    107.42809589	     -1.68116518	     -5.71371768	      1.40127317	     48.18364258	    109.19589079
      0.09000000	      1.05925842	     -4.28527849	      5.33046259	     -0.06425463	      1.00624302	     -0.24776606	     22.16907858	      5.64365079	     -9.42018330	     15.83076265	      0.27629893	     -3.50205733	    -11.01489781	     -5.22437959	    -11.09331142	     -9.70204358	     -5.46042094	     41.93134044	      0.73183995	    -19.49117480	     -3.42217492	     -5.22437959	     -6.54123237	     10.50907813	     -6.53928998	     -9.05296436	     -5.78314684	    -15.46221840	     31.93721673	    107.56776242	     -2.04726414	     -5.71515684	      1.65041641	     46.85707668	    109.10477408
      0.10000000	      1.02879176	     -4.81750341	      5.71508712	     -0.05089294	      1.00819834	     -0.24567374	     21.31866399	      6.39782132	     -9.62975212	     15.64696991	      0.27309114	     -2.93725570	    -11.25667509	     -5.28903197	     -8.61793233	    -10.79936237	     -4.94803158	     45.82637633	      0.79982115	    -22.49996307	     -5.06735926	     -5.28903197	     -6.49478404	     11.12381462	     -6.47538792	     -9.02976630	     -5.70886240	    -15.74723222	     32.41452990	    107.70337246	     -2.41330005	     -5.77510777	      1.90115834	     45.60249801	    109.01982862
      0.11000000	      1.09809670	     -5.36147520	      6.21443416	     -0.03776772	      1.01031512	     -0.24365754	     20.24238486	      7.19705434	     -9.83764790	     15.19020786	      0.26511914	     -2.24515375	    -11.50130418	     -5.31609291	     -6.15295605	    -11.89464527	     -4.23109027	     49.57379119	      0.86522588	    -24.61569364	     -5.88684443	     -5.31609291	     -6.54941372	     11.72745577	     -6.56895087	     -8.90321902	     -5.65947633	    -15.77940788	     32.81593902	    107.76830594	     -2.83366539	     -5.90299893	      2.01473264	     44.53439145	    108.94593936
      0.12000000	      1.02788434	     -5.73145964	      6.75742051	     -0.02515663	      1.01231480	     -0.24195857	     19.32335872	      7.76396404	    -10.01280690	     14.71460022	      0.25681822	     -1.80497480	    -11.66896710	     -5.34679708	     -3.42889936	    -12.62813045	     -3.30314154	     53.18421715	      0.92823970	    -26.15061447	     -7.09016576	     -5.34679708	     -6.50228869	     12.12616106	     -6.62611305	     -8.77535144	     -5.63701597	    -15.79223564	     33.24837733	    107.83237921	     -3.11426854	     -6.05671519	      2.25735625	     43.36111027	    108.88932085
      0.13000000	      1.05461790	     -5.96865348	      7.28987649	     -0.01273094	      1.01460321	     -0.24045428	     18.23008592	      8.21425102	    -10.16732303	     14.11513071	      0.24635551	     -1.23931476	    -11.81812709	     -5.36965353	     -0.87571410	    -13.04592407	     -2.24985540	     56.44912211	      0.98522304	    -26.72890623	     -7.94981670	     -5.36965353	     -6.61275814	     12.38927730	     -6.58635701	     -8.61100605	     -5.64896542	    -15.73772697	     33.61000453	    107.87923477	     -3.35337086	     -6.25385317	      2.47671373	     42.33403316	    108.84889991
